inDegrees=yes
name=ik_MT_2026-06-18_12h51_01210270-000-000_orientations
DataType=double
version=3
OpenSimVersion=4.5
endheader
time	pelvis_tilt	pelvis_list	pelvis_rotation	pelvis_tx	pelvis_ty	pelvis_tz	hip_flexion_r	hip_adduction_r	hip_rotation_r	knee_angle_r	knee_angle_r_beta	ankle_angle_r	subtalar_angle_r	mtp_angle_r	hip_flexion_l	hip_adduction_l	hip_rotation_l	knee_angle_l	knee_angle_l_beta	ankle_angle_l	subtalar_angle_l	mtp_angle_l	lumbar_extension	lumbar_bending	lumbar_rotation	arm_flex_r	arm_add_r	arm_rot_r	elbow_flex_r	pro_sup_r	wrist_flex_r	wrist_dev_r	arm_flex_l	arm_add_l	arm_rot_l	elbow_flex_l	pro_sup_l	wrist_flex_l	wrist_dev_l
0	0.009127005625276029	0.02308889165897064	-104.7997458786354	0	0.9399999999999999	0	0.362995707650279	-0.004872952015288796	-0.1078231790079098	0.6439444837783742	0.01123895144198784	0.3260663034235551	0	0	0.3609355204571608	-0.005872166464662002	-0.1041913346906153	0.6357549524482224	0.01109601715608147	0.3226307531868321	0	0	0.02908959025203092	-0.01531161936328054	-0.03216314468634567	0	-1.905539454564565	0	22.68218739356274	21.37826116731785	0	0	0	-1.905539454564565	0	22.68218739356274	21.37826116731785	0	0
0.025	0.01475385815554087	0.056951807460463	-104.7762464549878	0	0.9399999999999999	0	0.706895731491923	-0.01262021202681112	-0.2245048393705907	1.213832497738511	0.02118537365324365	0.6113737885382114	0	0	0.7024734825944	-0.02054725817459892	-0.1870480792191755	1.211012204111307	0.02113615024357591	0.61458088157491	0	0	0.2357753223066848	-0.02850412742257409	0.01408305741911309	0	-2.824684207427087	0	31.37877470677579	28.39873296090875	0	0	0	-2.824684207427087	0	31.37877470677579	28.39873296090875	0	0
0.05	-0.004605825741623423	0.008983937381510824	-104.7496250068346	0	0.9399999999999999	0	0.3618446149079522	-0.01328042966734599	-0.1613373486399467	0.661935486981067	0.01155295368361168	0.3583135064594115	0	0	0.3526064165065309	-0.01660493923818986	-0.08111344247480158	0.6477916797920629	0.01130609767939631	0.3464289081195944	0	0	0.3226471490451002	-0.00888942529136906	0.03922446827069224	0	-3.289925008135846	0	35.26133859935359	31.27978587479923	0	0	0	-3.289925008135846	0	35.26133859935359	31.27978587479923	0	0
0.075	-0.002037308186256921	-0.001863472985780173	-104.7096389272862	0	0.9399999999999999	0	0.3635569033189961	-0.01044530367099361	-0.1840516328373811	0.6487039901873123	0.01132202049959359	0.324650794826239	0	0	0.3606702214188583	-0.03050016009494691	-0.09030989218428133	0.6465931026302336	0.01128517856158318	0.3110918069869162	0	0	0.4093453906799677	-0.05509684678640237	0.0795395499168082	0	-3.6784882672618	0	38.27066912182173	33.3717133233983	0	0	0	-3.6784882672618	0	38.27066912182173	33.3717133233983	0	0
0.1	-0.01153735884387599	-0.0002262616155178514	-104.6380092095302	0	0.9399999999999999	0	0.3657728720126637	-0.01284573299687868	-0.2568049889100946	0.6465672669703333	0.0112847276442535	0.3271261290017017	0	0	0.369329326594565	-0.04560481782753258	-0.06160631488826619	0.6497300015536231	0.0113399277760986	0.3023284642162511	0	0	0.5402226846568646	-0.07808380831565059	0.07547415743082588	0	-4.050266729493475	0	40.93128721279271	35.09942654665723	0	0	0	-4.050266729493475	0	40.93128721279271	35.09942654665723	0	0
0.125	-0.02301177748215352	0.008448481595378646	-104.619677579827	0	0.9399999999999999	0	0.3789264329354727	0.003697001964655076	-0.2325296209920924	0.6334891399805034	0.01105647126828703	0.3280560006753768	0	0	0.3845134999103917	-0.05734655336978028	-0.06556814158878084	0.6330407137778886	0.01104864475459919	0.2938761727608381	0	0	0.6758396492726083	-0.1097717301667476	0.1336211443162475	0	-4.403290096694545	0	43.29490749560015	36.53359699488099	0	0	0	-4.403290096694545	0	43.29490749560015	36.53359699488099	0	0
0.15	-0.03139565447065108	-0.00194281855779388	-104.55623570294	0	0.9399999999999999	0	0.3776620773657957	-0.0006920993156494905	-0.3012827394724178	0.6659905370691153	0.01162372765898141	0.3549509740421316	0	0	0.3943384762763096	-0.06622057369839365	-0.02060071620491897	0.6601609428929279	0.01152198204655185	0.2873897848630594	0	0	0.8669781259985671	-0.1154130944266559	0.1349276377121722	0	-4.964278053702045	0	46.7651064639857	38.44617743274166	0	0	0	-4.964278053702045	0	46.7651064639857	38.44617743274166	0	0
0.175	-0.0001573790397366748	0.1030215263556906	-104.4990692593641	0	0.9399999999999999	0	0.8265617979041417	-0.01764085187701365	-0.4517380323166216	1.236415914033888	0.0215795286239465	0.5795917951931784	0	0	0.8422525510760569	-0.07985167611688523	-0.06585392366635334	1.209203675110349	0.0211045854578914	0.4711036242028637	0	0	1.192824070556946	-0.1812976093656196	0.1491466020500303	0	-5.40684414539807	0	49.27819712093877	39.67743677669802	0	0	0	-5.40684414539807	0	49.27819712093877	39.67743677669802	0	0
0.2	-0.02440532727016605	-0.03887353428032576	-104.4445039647151	0	0.9399999999999999	0	0.3677760387931174	-0.0238507052300833	-0.4114012786590446	0.6837246910950893	0.01193324703679046	0.3716350046559717	0	0	0.3967614988763013	-0.06264406630361311	0.06281379353334587	0.665475212077039	0.01161473354115186	0.2583679658487554	0	0	1.075989864107315	-0.2269939036313641	0.1432048999911432	0	-5.676954580514549	0	50.75027881490495	40.35417236312885	0	0	0	-5.676954580514549	0	50.75027881490495	40.35417236312885	0	0
0.225	-0.01549846439423613	-0.03264554726365285	-104.4093493209276	0	0.9399999999999999	0	0.3864595385542616	-0.03612717851167595	-0.4421891693401583	0.6671200473503822	0.01164344133232464	0.3553910061468533	0	0	0.4148471549144858	-0.06874095136856972	0.08793885743928379	0.6581672422128603	0.01148718540538542	0.2376741387239506	0	0	1.136961232524342	-0.258712160884262	0.1740086063787348	0	-5.968861411539651	0	52.26654266080349	40.99631473040657	0	0	0	-5.968861411539651	0	52.26654266080349	40.99631473040657	0	0
0.25	-0.02153447817481538	-0.04586390405454804	-104.3808731096845	0	0.9399999999999999	0	0.379366436055151	-0.03539574917407117	-0.4609862597209869	0.6686372785566557	0.01166992201238812	0.3507216162471069	0	0	0.4132981751469599	-0.07559366335611764	0.101163865690909	0.6604436695890367	0.01152691655828223	0.2212897387115365	0	0	1.195899763188573	-0.2698378962400919	0.2277391468698409	0	-6.254550028281619	0	53.69417108368668	41.55835425257684	0	0	0	-6.254550028281619	0	53.69417108368668	41.55835425257684	0	0
0.275	-0.02547637913709495	-0.06379243594435813	-104.3346398108803	0	0.9399999999999999	0	0.3726373115134841	-0.03845350240117934	-0.5110406734531269	0.6792156330422119	0.01185454912760419	0.3611842532345468	0	0	0.4152768855216227	-0.07971792522510239	0.14257757800694	0.675675182976379	0.01179275661695295	0.2233785520106461	0	0	1.248713946636641	-0.2921372225688365	0.2562348131939535	0	-6.527240093046943	0	54.99576087121147	42.02838314128331	0	0	0	-6.527240093046943	0	54.99576087121147	42.02838314128331	0	0
0.3	-0.03870051616136168	-0.07774549599712555	-104.3054912780112	0	0.9399999999999999	0	0.3709645221963194	-0.03269793468938401	-0.522200467676756	0.6767671085228578	0.01181181431292565	0.3452534899656948	0	0	0.4176944978182456	-0.1037157854776613	0.156136211524633	0.6718060005789168	0.01172522664475703	0.1912149955448947	0	0	1.219613446319374	-0.2683058369278857	0.3269601835596092	0	-6.785373641916437	0	56.19569251178843	42.43636432656837	0	0	0	-6.785373641916437	0	56.19569251178843	42.43636432656837	0	0
